<svg xmlns="http://www.w3.org/2000/svg" xmlns:xlink="http://www.w3.org/1999/xlink" width="180" height="50"><defs><path id="a" d="M0 .012h50v50H0z"/></defs><g fill="none" fill-rule="evenodd"><path fill="#009fe3" d="M102.906 11.142c0 1.604-1.445 2.905-3.227 2.905s-3.228-1.3-3.228-2.905 1.445-2.905 3.228-2.905 3.227 1.3 3.227 2.905"/><path fill="#3d3a39" d="M85.557 11.421v25.108h6.007V10.01h-4.61c-.772 0-1.397.632-1.397 1.41m11.118 7.06v18.048h6.007V17.07h-4.61c-.772 0-1.397.632-1.397 1.41m20.307 16.374c-1.233 0-2.539-1.176-3.541-2.353V22.067c.935-.938 2.525-2.282 3.9-2.282 2.062 0 3.99 2.851 3.99 7.014s-1.883 8.055-4.348 8.055m1.972-18.237c-2.736 0-4.662 1.431-5.514 2.214V17.07h-4.61c-.772 0-1.397.632-1.397 1.41v25.832h6.007v-8.568c.912.696 2.145 1.192 3.81 1.192 5.603 0 9.907-4.887 9.907-11.042s-4.438-9.277-8.204-9.277m19.276 17.739c-2.51 0-4.079-1.493-4.079-4.254s2.779-4.48 4.976-4.48c1.106 0 1.789.355 2.196.708v6.748c-.707.62-1.764 1.278-3.093 1.278m.359-17.739c-5.29 0-7.038 1.131-7.038 1.131l.628 1.358s1.972-.724 5.2-.724c3.586 0 3.945 1.946 3.945 4.344v1.119a14.605 14.605 0 0 0-4.079-.576c-2.735 0-7.576 1.086-7.576 6.743s4.304 6.924 7.128 6.924c1.653 0 3.377-.866 4.528-1.586v1.179h6.007V22.726c0-4.073-3.452-6.109-8.741-6.109m32.576 0h-4.031l-5.408 12.434-6.314-12.436h-6.154l9.628 18.965-.984 2.263c-1.518 3.041-5.866 2.837-5.866 2.837v2.545s1.871.158 3.227 0c1.291-.151 4.167-1.018 5.566-4.015l10.336-22.594zM73.406 30.284H62.56l5.52-11.583 5.326 11.583zM70.71 10.012h-2.55l-2.071 4.35-10.566 22.167h4.061l2.092-4.39h12.583l2.018 4.39h6.626L70.71 10.012z"/><g transform="translate(0 .163)"><mask id="b" fill="#fff"><use xlink:href="#a"/></mask><path fill="#009fe3" d="M50 34.003V7.853A7.84 7.84 0 0 0 42.16.012H7.84A7.84 7.84 0 0 0 0 7.853v34.318a7.84 7.84 0 0 0 7.84 7.841h34.32A7.842 7.842 0 0 0 50 42.251c-5.127-2.857-12.336-6.728-19.161-9.872-3.579 4.916-9.394 9.046-16.598 9.046-7.886 0-10.467-5.065-10.828-8.535-.447-4.348 1.652-9.103 11.115-9.103 3.946 0 8.861 1.147 14.189 2.793 1.847-3.35 2.948-6.734 2.948-6.734H11.803v-1.87h10.278v-3.493H9.859v-2.128h12.222V6.734h5.689v5.621h12.222v2.128H27.77v3.493h9.916s-1.703 5.208-4.273 10.141L50 34.003" mask="url(#b)"/></g><path fill="#009fe3" d="M4.954 32.141c.108 2.123 1.076 5.68 7.327 5.68 5.46 0 9.694-4.198 12.335-7.7-4.675-1.971-8.838-3.323-11.463-3.323-7.058 0-8.3 3.486-8.198 5.344"/><path fill="#3d3a39" d="M172.752 8.537v.681h1.011v3.403h.674V9.218h1.011v-.681zm5.225 2.336-1.219-2.325-.635.159v3.914h.674v-2.544l.882 1.682h.596l.882-1.682v2.544h.674V8.707l-.635-.159z"/></g></svg>