<svg xmlns="http://www.w3.org/2000/svg" width="32" height="32"><path fill="#009fe3" fill-rule="evenodd" d="M24.923 3A4.08 4.08 0 0 1 29 7.077v13.598l-8.625-3.06c1.336-2.565 2.222-5.273 2.222-5.273H17.44v-1.817h6.355V9.419H17.44V6.496h-2.958v2.923H8.127v1.107h6.355v1.817H9.138v.972h10.328s-.573 1.76-1.533 3.502c-2.771-.856-5.327-1.453-7.378-1.453-4.921 0-6.012 2.473-5.78 4.733.188 1.805 1.53 4.438 5.631 4.438 3.746 0 6.77-2.147 8.631-4.704 3.549 1.634 7.298 3.648 9.964 5.133A4.08 4.08 0 0 1 24.923 29H7.077A4.08 4.08 0 0 1 3 24.923V7.077A4.08 4.08 0 0 1 7.077 3zm-14.7 13.989c1.301 0 3.365.718 5.683 1.764-1.309 1.859-3.408 4.086-6.115 4.086-3.099 0-3.579-1.888-3.632-3.014-.051-.986.565-2.836 4.064-2.836z"/></svg>